<svg xmlns="http://www.w3.org/2000/svg" width="14.787" height="14.787" viewBox="0 0 14.787 14.787">
  <g id="Group_13276" data-name="Group 13276" transform="translate(-70)">
    <path id="Path_15872" data-name="Path 15872" d="M284.472,229.2c-.313,1.206-3.484,1.3-3.261-.313.134-1.072.357-2.1.536-3.172.089-.67-.357-.447-.715-.581-.268-.134-.268-.447.045-.491a19.011,19.011,0,0,1,2.278-.045c.268,0,.4.134.4.357a1.435,1.435,0,0,1-.045.625c-.179,1.028-.447,2.1-.536,3.082-.045.223,0,.625.313.625a3.38,3.38,0,0,0,.715-.268c.179-.089.268.045.268.179Z" transform="translate(-205.269 -218.661)" fill="#020110" fill-rule="evenodd"/>
    <path id="Path_15873" data-name="Path 15873" d="M319.767,125.2a1.058,1.058,0,0,1,1.072,1.072,1.032,1.032,0,0,1-1.072,1.072,1.072,1.072,0,1,1,0-2.144Z" transform="translate(-242.128 -121.894)" fill="#020110" fill-rule="evenodd"/>
    <path id="Path_15874" data-name="Path 15874" d="M77.371,0A7.393,7.393,0,1,1,70,7.371,7.388,7.388,0,0,1,77.371,0Zm0,1.117a6.254,6.254,0,1,0,6.254,6.254,6.273,6.273,0,0,0-6.254-6.254Z" fill="#020110"/>
  </g>
</svg>
